<?xml version="1.0" encoding="UTF-8"?>
<svg id="Atom" xmlns="http://www.w3.org/2000/svg" viewBox="0 0 1024 1024">
  <defs>
    <style>
      .cls-1 {
        fill: #121212;
      }

      .cls-2 {
        fill: #f7d417;
      }
    </style>
  </defs>
  <rect id="Background" class="cls-2" width="1024" height="1024"/>
  <rect class="cls-1" x="736.43" y="938.51" width="29.17" height="26.37"/>
  <rect class="cls-1" x="703.26" y="938.51" width="29.17" height="26.37"/>
  <rect class="cls-1" x="670.09" y="938.51" width="29.17" height="26.37"/>
  <rect class="cls-1" x="636.93" y="938.51" width="29.17" height="26.37"/>
  <rect class="cls-1" x="603.76" y="938.51" width="29.17" height="26.37"/>
  <rect class="cls-1" x="769.59" y="908.14" width="29.17" height="26.37"/>
  <rect class="cls-1" x="736.43" y="908.14" width="29.17" height="26.37"/>
  <rect class="cls-1" x="703.26" y="908.14" width="29.17" height="26.37"/>
  <rect class="cls-1" x="670.09" y="908.14" width="29.17" height="26.37"/>
  <rect class="cls-1" x="636.93" y="908.14" width="29.17" height="26.37"/>
  <rect class="cls-1" x="603.76" y="908.14" width="29.17" height="26.37"/>
  <rect class="cls-1" x="570.59" y="908.14" width="29.17" height="26.37"/>
  <rect class="cls-1" x="371.59" y="908.14" width="29.17" height="26.37"/>
  <rect class="cls-1" x="338.43" y="908.14" width="29.17" height="26.37"/>
  <rect class="cls-1" x="305.26" y="908.14" width="29.17" height="26.37"/>
  <rect class="cls-1" x="272.09" y="908.14" width="29.17" height="26.37"/>
  <rect class="cls-1" x="238.93" y="908.14" width="29.17" height="26.37"/>
  <rect class="cls-1" x="205.76" y="908.14" width="29.17" height="26.37"/>
  <rect class="cls-1" x="769.59" y="877.78" width="29.17" height="26.37"/>
  <rect class="cls-1" x="736.43" y="877.78" width="29.17" height="26.37"/>
  <rect class="cls-1" x="636.93" y="877.78" width="29.17" height="26.37"/>
  <rect class="cls-1" x="603.76" y="877.78" width="29.17" height="26.37"/>
  <rect class="cls-1" x="570.59" y="877.78" width="29.17" height="26.37"/>
  <rect class="cls-1" x="537.43" y="877.78" width="29.17" height="26.37"/>
  <rect class="cls-1" x="404.76" y="877.78" width="29.17" height="26.37"/>
  <rect class="cls-1" x="371.59" y="877.78" width="29.17" height="26.37"/>
  <rect class="cls-1" x="338.43" y="877.78" width="29.17" height="26.37"/>
  <rect class="cls-1" x="305.26" y="877.78" width="29.17" height="26.37"/>
  <rect class="cls-1" x="272.09" y="877.78" width="29.17" height="26.37"/>
  <rect class="cls-1" x="238.93" y="877.78" width="29.17" height="26.37"/>
  <rect class="cls-1" x="205.76" y="877.78" width="29.17" height="26.37"/>
  <rect class="cls-1" x="769.59" y="847.41" width="29.17" height="26.37"/>
  <rect class="cls-1" x="736.43" y="847.41" width="29.17" height="26.37"/>
  <rect class="cls-1" x="570.59" y="847.41" width="29.17" height="26.37"/>
  <rect class="cls-1" x="537.43" y="847.41" width="29.17" height="26.37"/>
  <rect class="cls-1" x="504.26" y="847.41" width="29.17" height="26.37"/>
  <rect class="cls-1" x="404.76" y="847.41" width="29.17" height="26.37"/>
  <rect class="cls-1" x="371.59" y="847.41" width="29.17" height="26.37"/>
  <rect class="cls-1" x="205.76" y="847.41" width="29.17" height="26.37"/>
  <rect class="cls-1" x="172.59" y="847.41" width="29.17" height="26.37"/>
  <rect class="cls-1" x="769.59" y="817.04" width="29.17" height="26.37"/>
  <rect class="cls-1" x="537.43" y="817.04" width="29.17" height="26.37"/>
  <rect class="cls-1" x="504.26" y="817.04" width="29.17" height="26.37"/>
  <rect class="cls-1" x="471.09" y="817.04" width="29.17" height="26.37"/>
  <rect class="cls-1" x="404.76" y="817.04" width="29.17" height="26.37"/>
  <rect class="cls-1" x="205.76" y="817.04" width="29.17" height="26.37"/>
  <rect class="cls-1" x="172.59" y="817.04" width="29.17" height="26.37"/>
  <rect class="cls-1" x="769.59" y="786.68" width="29.17" height="26.37"/>
  <rect class="cls-1" x="504.26" y="786.68" width="29.17" height="26.37"/>
  <rect class="cls-1" x="471.09" y="786.68" width="29.17" height="26.37"/>
  <rect class="cls-1" x="205.76" y="786.68" width="29.17" height="26.37"/>
  <rect class="cls-1" x="172.59" y="786.68" width="29.17" height="26.37"/>
  <rect class="cls-1" x="769.59" y="756.31" width="29.17" height="26.37"/>
  <rect class="cls-1" x="471.09" y="756.31" width="29.17" height="26.37"/>
  <rect class="cls-1" x="437.93" y="756.31" width="29.17" height="26.37"/>
  <rect class="cls-1" x="205.76" y="756.31" width="29.17" height="26.37"/>
  <rect class="cls-1" x="172.59" y="756.31" width="29.17" height="26.37"/>
  <rect class="cls-1" x="769.59" y="725.94" width="29.17" height="26.37"/>
  <rect class="cls-1" x="736.43" y="725.94" width="29.17" height="26.37"/>
  <rect class="cls-1" x="471.09" y="725.94" width="29.17" height="26.37"/>
  <rect class="cls-1" x="437.93" y="725.94" width="29.17" height="26.37"/>
  <rect class="cls-1" x="404.76" y="725.94" width="29.17" height="26.37"/>
  <rect class="cls-1" x="205.76" y="725.94" width="29.17" height="26.37"/>
  <rect class="cls-1" x="172.59" y="725.94" width="29.17" height="26.37"/>
  <rect class="cls-1" x="769.59" y="695.58" width="29.17" height="26.37"/>
  <rect class="cls-1" x="736.43" y="695.58" width="29.17" height="26.37"/>
  <rect class="cls-1" x="437.93" y="695.58" width="29.17" height="26.37"/>
  <rect class="cls-1" x="404.76" y="695.58" width="29.17" height="26.37"/>
  <rect class="cls-1" x="238.93" y="695.58" width="29.17" height="26.37"/>
  <rect class="cls-1" x="205.76" y="695.58" width="29.17" height="26.37"/>
  <rect class="cls-1" x="769.59" y="665.21" width="29.17" height="26.37"/>
  <rect class="cls-1" x="736.43" y="665.21" width="29.17" height="26.37"/>
  <rect class="cls-1" x="437.93" y="665.21" width="29.17" height="26.37"/>
  <rect class="cls-1" x="404.76" y="665.21" width="29.17" height="26.37"/>
  <rect class="cls-1" x="371.59" y="665.21" width="29.17" height="26.37"/>
  <rect class="cls-1" x="238.93" y="665.21" width="29.17" height="26.37"/>
  <rect class="cls-1" x="205.76" y="665.21" width="29.17" height="26.37"/>
  <rect class="cls-1" x="835.93" y="634.84" width="29.17" height="26.37"/>
  <rect class="cls-1" x="769.59" y="634.84" width="29.17" height="26.37"/>
  <rect class="cls-1" x="736.43" y="634.84" width="29.17" height="26.37"/>
  <rect class="cls-1" x="404.76" y="634.84" width="29.17" height="26.37"/>
  <rect class="cls-1" x="371.59" y="634.84" width="29.17" height="26.37"/>
  <rect class="cls-1" x="238.93" y="634.84" width="29.17" height="26.37"/>
  <rect class="cls-1" x="205.76" y="634.84" width="29.17" height="26.37"/>
  <rect class="cls-1" x="902.26" y="604.48" width="29.17" height="26.37"/>
  <rect class="cls-1" x="869.09" y="604.48" width="29.17" height="26.37"/>
  <rect class="cls-1" x="835.93" y="604.48" width="29.17" height="26.37"/>
  <rect class="cls-1" x="736.43" y="604.48" width="29.17" height="26.37"/>
  <rect class="cls-1" x="703.26" y="604.48" width="29.17" height="26.37"/>
  <rect class="cls-1" x="371.59" y="604.48" width="29.17" height="26.37"/>
  <rect class="cls-1" x="338.43" y="604.48" width="29.17" height="26.37"/>
  <rect class="cls-1" x="272.09" y="604.48" width="29.17" height="26.37"/>
  <rect class="cls-1" x="238.93" y="604.48" width="29.17" height="26.37"/>
  <rect class="cls-1" x="139.43" y="604.48" width="29.17" height="26.37"/>
  <rect class="cls-1" x="106.26" y="604.48" width="29.17" height="26.37"/>
  <rect class="cls-1" x="935.43" y="574.11" width="29.17" height="26.37"/>
  <rect class="cls-1" x="902.26" y="574.11" width="29.17" height="26.37"/>
  <rect class="cls-1" x="869.09" y="574.11" width="29.17" height="26.37"/>
  <rect class="cls-1" x="835.93" y="574.11" width="29.17" height="26.37"/>
  <rect class="cls-1" x="736.43" y="574.11" width="29.17" height="26.37"/>
  <rect class="cls-1" x="703.26" y="574.11" width="29.17" height="26.37"/>
  <rect class="cls-1" x="371.59" y="574.11" width="29.17" height="26.37"/>
  <rect class="cls-1" x="338.43" y="574.11" width="29.17" height="26.37"/>
  <rect class="cls-1" x="272.09" y="574.11" width="29.17" height="26.37"/>
  <rect class="cls-1" x="238.93" y="574.11" width="29.17" height="26.37"/>
  <rect class="cls-1" x="139.43" y="574.11" width="29.17" height="26.37"/>
  <rect class="cls-1" x="106.26" y="574.11" width="29.17" height="26.37"/>
  <rect class="cls-1" x="73.09" y="574.11" width="29.17" height="26.37"/>
  <rect class="cls-1" x="968.59" y="543.74" width="29.17" height="26.37"/>
  <rect class="cls-1" x="935.43" y="543.74" width="29.17" height="26.37"/>
  <rect class="cls-1" x="902.26" y="543.74" width="29.17" height="26.37"/>
  <rect class="cls-1" x="736.43" y="543.74" width="29.17" height="26.37"/>
  <rect class="cls-1" x="703.26" y="543.74" width="29.17" height="26.37"/>
  <rect class="cls-1" x="537.43" y="543.74" width="29.17" height="26.37"/>
  <rect class="cls-1" x="504.26" y="543.74" width="29.17" height="26.37"/>
  <rect class="cls-1" x="471.09" y="543.74" width="29.17" height="26.37"/>
  <rect class="cls-1" x="338.43" y="543.74" width="29.17" height="26.37"/>
  <rect class="cls-1" x="305.26" y="543.74" width="29.17" height="26.37"/>
  <rect class="cls-1" x="272.09" y="543.74" width="29.17" height="26.37"/>
  <rect class="cls-1" x="238.93" y="543.74" width="29.17" height="26.37"/>
  <rect class="cls-1" x="73.09" y="543.74" width="29.17" height="26.37"/>
  <rect class="cls-1" x="39.93" y="543.74" width="29.17" height="26.37"/>
  <rect class="cls-1" x="968.59" y="513.38" width="29.17" height="26.37"/>
  <rect class="cls-1" x="935.43" y="513.38" width="29.17" height="26.37"/>
  <rect class="cls-1" x="736.43" y="513.38" width="29.17" height="26.37"/>
  <rect class="cls-1" x="703.26" y="513.38" width="29.17" height="26.37"/>
  <rect class="cls-1" x="670.09" y="513.38" width="29.17" height="26.37"/>
  <rect class="cls-1" x="570.59" y="513.38" width="29.17" height="26.37"/>
  <rect class="cls-1" x="537.43" y="513.38" width="29.17" height="26.37"/>
  <rect class="cls-1" x="504.26" y="513.38" width="29.17" height="26.37"/>
  <rect class="cls-1" x="471.09" y="513.38" width="29.17" height="26.37"/>
  <rect class="cls-1" x="437.93" y="513.38" width="29.17" height="26.37"/>
  <rect class="cls-1" x="338.43" y="513.38" width="29.17" height="26.37"/>
  <rect class="cls-1" x="305.26" y="513.38" width="29.17" height="26.37"/>
  <rect class="cls-1" x="272.09" y="513.38" width="29.17" height="26.37"/>
  <rect class="cls-1" x="39.93" y="513.38" width="29.17" height="26.37"/>
  <rect class="cls-1" x="6.76" y="513.38" width="29.17" height="26.37"/>
  <rect class="cls-1" x="968.59" y="483.01" width="29.17" height="26.37"/>
  <rect class="cls-1" x="935.43" y="483.01" width="29.17" height="26.37"/>
  <rect class="cls-1" x="703.26" y="483.01" width="29.17" height="26.37"/>
  <rect class="cls-1" x="670.09" y="483.01" width="29.17" height="26.37"/>
  <rect class="cls-1" x="570.59" y="483.01" width="29.17" height="26.37"/>
  <rect class="cls-1" x="537.43" y="483.01" width="29.17" height="26.37"/>
  <rect class="cls-1" x="504.26" y="483.01" width="29.17" height="26.37"/>
  <rect class="cls-1" x="471.09" y="483.01" width="29.17" height="26.37"/>
  <rect class="cls-1" x="437.93" y="483.01" width="29.17" height="26.37"/>
  <rect class="cls-1" x="338.43" y="483.01" width="29.17" height="26.37"/>
  <rect class="cls-1" x="305.26" y="483.01" width="29.17" height="26.37"/>
  <rect class="cls-1" x="272.09" y="483.01" width="29.17" height="26.37"/>
  <rect class="cls-1" x="39.93" y="483.01" width="29.17" height="26.37"/>
  <rect class="cls-1" x="6.76" y="483.01" width="29.17" height="26.37"/>
  <rect class="cls-1" x="968.59" y="452.64" width="29.17" height="26.37"/>
  <rect class="cls-1" x="935.43" y="452.64" width="29.17" height="26.37"/>
  <rect class="cls-1" x="703.26" y="452.64" width="29.17" height="26.37"/>
  <rect class="cls-1" x="670.09" y="452.64" width="29.17" height="26.37"/>
  <rect class="cls-1" x="537.43" y="452.64" width="29.17" height="26.37"/>
  <rect class="cls-1" x="504.26" y="452.64" width="29.17" height="26.37"/>
  <rect class="cls-1" x="471.09" y="452.64" width="29.17" height="26.37"/>
  <rect class="cls-1" x="437.93" y="452.64" width="29.17" height="26.37"/>
  <rect class="cls-1" x="338.43" y="452.64" width="29.17" height="26.37"/>
  <rect class="cls-1" x="305.26" y="452.64" width="29.17" height="26.37"/>
  <rect class="cls-1" x="272.09" y="452.64" width="29.17" height="26.37"/>
  <rect class="cls-1" x="39.93" y="452.64" width="29.17" height="26.37"/>
  <rect class="cls-1" x="6.76" y="452.64" width="29.17" height="26.37"/>
  <rect class="cls-1" x="968.59" y="422.28" width="29.17" height="26.37"/>
  <rect class="cls-1" x="935.43" y="422.28" width="29.17" height="26.37"/>
  <rect class="cls-1" x="902.26" y="422.28" width="29.17" height="26.37"/>
  <rect class="cls-1" x="670.09" y="422.28" width="29.17" height="26.37"/>
  <rect class="cls-1" x="537.43" y="422.28" width="29.17" height="26.37"/>
  <rect class="cls-1" x="504.26" y="422.28" width="29.17" height="26.37"/>
  <rect class="cls-1" x="471.09" y="422.28" width="29.17" height="26.37"/>
  <rect class="cls-1" x="338.43" y="422.28" width="29.17" height="26.37"/>
  <rect class="cls-1" x="305.26" y="422.28" width="29.17" height="26.37"/>
  <rect class="cls-1" x="272.09" y="422.28" width="29.17" height="26.37"/>
  <rect class="cls-1" x="73.09" y="422.28" width="29.17" height="26.37"/>
  <rect class="cls-1" x="39.93" y="422.28" width="29.17" height="26.37"/>
  <rect class="cls-1" x="6.76" y="422.28" width="29.17" height="26.37"/>
  <rect class="cls-1" x="968.59" y="391.91" width="29.17" height="26.37"/>
  <rect class="cls-1" x="935.43" y="391.91" width="29.17" height="26.37"/>
  <rect class="cls-1" x="902.26" y="391.91" width="29.17" height="26.37"/>
  <rect class="cls-1" x="869.09" y="391.91" width="29.17" height="26.37"/>
  <rect class="cls-1" x="835.93" y="391.91" width="29.17" height="26.37"/>
  <rect class="cls-1" x="371.59" y="391.91" width="29.17" height="26.37"/>
  <rect class="cls-1" x="338.43" y="391.91" width="29.17" height="26.37"/>
  <rect class="cls-1" x="305.26" y="391.91" width="29.17" height="26.37"/>
  <rect class="cls-1" x="272.09" y="391.91" width="29.17" height="26.37"/>
  <rect class="cls-1" x="139.43" y="391.91" width="29.17" height="26.37"/>
  <rect class="cls-1" x="106.26" y="391.91" width="29.17" height="26.37"/>
  <rect class="cls-1" x="73.09" y="391.91" width="29.17" height="26.37"/>
  <rect class="cls-1" x="39.93" y="391.91" width="29.17" height="26.37"/>
  <rect class="cls-1" x="869.09" y="361.54" width="29.17" height="26.37"/>
  <rect class="cls-1" x="835.93" y="361.54" width="29.17" height="26.37"/>
  <rect class="cls-1" x="802.76" y="361.54" width="29.17" height="26.37"/>
  <rect class="cls-1" x="769.59" y="361.54" width="29.17" height="26.37"/>
  <rect class="cls-1" x="736.43" y="361.54" width="29.17" height="26.37"/>
  <rect class="cls-1" x="404.76" y="361.54" width="29.17" height="26.37"/>
  <rect class="cls-1" x="371.59" y="361.54" width="29.17" height="26.37"/>
  <rect class="cls-1" x="338.43" y="361.54" width="29.17" height="26.37"/>
  <rect class="cls-1" x="305.26" y="361.54" width="29.17" height="26.37"/>
  <rect class="cls-1" x="272.09" y="361.54" width="29.17" height="26.37"/>
  <rect class="cls-1" x="238.93" y="361.54" width="29.17" height="26.37"/>
  <rect class="cls-1" x="205.76" y="361.54" width="29.17" height="26.37"/>
  <rect class="cls-1" x="172.59" y="361.54" width="29.17" height="26.37"/>
  <rect class="cls-1" x="139.43" y="361.54" width="29.17" height="26.37"/>
  <rect class="cls-1" x="106.26" y="361.54" width="29.17" height="26.37"/>
  <rect class="cls-1" x="73.09" y="361.54" width="29.17" height="26.37"/>
  <rect class="cls-1" x="802.76" y="331.18" width="29.17" height="26.37"/>
  <rect class="cls-1" x="769.59" y="331.18" width="29.17" height="26.37"/>
  <rect class="cls-1" x="736.43" y="331.18" width="29.17" height="26.37"/>
  <rect class="cls-1" x="703.26" y="331.18" width="29.17" height="26.37"/>
  <rect class="cls-1" x="670.09" y="331.18" width="29.17" height="26.37"/>
  <rect class="cls-1" x="636.93" y="331.18" width="29.17" height="26.37"/>
  <rect class="cls-1" x="603.76" y="331.18" width="29.17" height="26.37"/>
  <rect class="cls-1" x="570.59" y="331.18" width="29.17" height="26.37"/>
  <rect class="cls-1" x="537.43" y="331.18" width="29.17" height="26.37"/>
  <rect class="cls-1" x="504.26" y="331.18" width="29.17" height="26.37"/>
  <rect class="cls-1" x="471.09" y="331.18" width="29.17" height="26.37"/>
  <rect class="cls-1" x="437.93" y="331.18" width="29.17" height="26.37"/>
  <rect class="cls-1" x="404.76" y="331.18" width="29.17" height="26.37"/>
  <rect class="cls-1" x="371.59" y="331.18" width="29.17" height="26.37"/>
  <rect class="cls-1" x="338.43" y="331.18" width="29.17" height="26.37"/>
  <rect class="cls-1" x="305.26" y="331.18" width="29.17" height="26.37"/>
  <rect class="cls-1" x="272.09" y="331.18" width="29.17" height="26.37"/>
  <rect class="cls-1" x="238.93" y="331.18" width="29.17" height="26.37"/>
  <rect class="cls-1" x="205.76" y="331.18" width="29.17" height="26.37"/>
  <rect class="cls-1" x="172.59" y="331.18" width="29.17" height="26.37"/>
  <rect class="cls-1" x="139.43" y="331.18" width="29.17" height="26.37"/>
  <rect class="cls-1" x="703.26" y="300.81" width="29.17" height="26.37"/>
  <rect class="cls-1" x="670.09" y="300.81" width="29.17" height="26.37"/>
  <rect class="cls-1" x="636.93" y="300.81" width="29.17" height="26.37"/>
  <rect class="cls-1" x="603.76" y="300.81" width="29.17" height="26.37"/>
  <rect class="cls-1" x="570.59" y="300.81" width="29.17" height="26.37"/>
  <rect class="cls-1" x="537.43" y="300.81" width="29.17" height="26.37"/>
  <rect class="cls-1" x="504.26" y="300.81" width="29.17" height="26.37"/>
  <rect class="cls-1" x="471.09" y="300.81" width="29.17" height="26.37"/>
  <rect class="cls-1" x="437.93" y="300.81" width="29.17" height="26.37"/>
  <rect class="cls-1" x="404.76" y="300.81" width="29.17" height="26.37"/>
  <rect class="cls-1" x="371.59" y="300.81" width="29.17" height="26.37"/>
  <rect class="cls-1" x="338.43" y="300.81" width="29.17" height="26.37"/>
  <rect class="cls-1" x="305.26" y="300.81" width="29.17" height="26.37"/>
  <rect class="cls-1" x="272.09" y="300.81" width="29.17" height="26.37"/>
  <rect class="cls-1" x="238.93" y="300.81" width="29.17" height="26.37"/>
  <rect class="cls-1" x="802.76" y="270.44" width="29.17" height="26.37"/>
  <rect class="cls-1" x="769.59" y="270.44" width="29.17" height="26.37"/>
  <rect class="cls-1" x="471.09" y="270.44" width="29.17" height="26.37"/>
  <rect class="cls-1" x="437.93" y="270.44" width="29.17" height="26.37"/>
  <rect class="cls-1" x="404.76" y="270.44" width="29.17" height="26.37"/>
  <rect class="cls-1" x="272.09" y="270.44" width="29.17" height="26.37"/>
  <rect class="cls-1" x="238.93" y="270.44" width="29.17" height="26.37"/>
  <rect class="cls-1" x="802.76" y="240.08" width="29.17" height="26.37"/>
  <rect class="cls-1" x="769.59" y="240.08" width="29.17" height="26.37"/>
  <rect class="cls-1" x="504.26" y="240.08" width="29.17" height="26.37"/>
  <rect class="cls-1" x="471.09" y="240.08" width="29.17" height="26.37"/>
  <rect class="cls-1" x="437.93" y="240.08" width="29.17" height="26.37"/>
  <rect class="cls-1" x="272.09" y="240.08" width="29.17" height="26.37"/>
  <rect class="cls-1" x="238.93" y="240.08" width="29.17" height="26.37"/>
  <rect class="cls-1" x="802.76" y="209.71" width="29.17" height="26.37"/>
  <rect class="cls-1" x="769.59" y="209.71" width="29.17" height="26.37"/>
  <rect class="cls-1" x="537.43" y="209.71" width="29.17" height="26.37"/>
  <rect class="cls-1" x="504.26" y="209.71" width="29.17" height="26.37"/>
  <rect class="cls-1" x="471.09" y="209.71" width="29.17" height="26.37"/>
  <rect class="cls-1" x="272.09" y="209.71" width="29.17" height="26.37"/>
  <rect class="cls-1" x="238.93" y="209.71" width="29.17" height="26.37"/>
  <rect class="cls-1" x="802.76" y="179.34" width="29.17" height="26.37"/>
  <rect class="cls-1" x="769.59" y="179.34" width="29.17" height="26.37"/>
  <rect class="cls-1" x="570.59" y="179.34" width="29.17" height="26.37"/>
  <rect class="cls-1" x="537.43" y="179.34" width="29.17" height="26.37"/>
  <rect class="cls-1" x="504.26" y="179.34" width="29.17" height="26.37"/>
  <rect class="cls-1" x="272.09" y="179.34" width="29.17" height="26.37"/>
  <rect class="cls-1" x="238.93" y="179.34" width="29.17" height="26.37"/>
  <rect class="cls-1" x="769.59" y="148.98" width="29.17" height="26.37"/>
  <rect class="cls-1" x="603.76" y="148.98" width="29.17" height="26.37"/>
  <rect class="cls-1" x="570.59" y="148.98" width="29.17" height="26.37"/>
  <rect class="cls-1" x="537.43" y="148.98" width="29.17" height="26.37"/>
  <rect class="cls-1" x="437.93" y="148.98" width="29.17" height="26.37"/>
  <rect class="cls-1" x="272.09" y="148.98" width="29.17" height="26.37"/>
  <rect class="cls-1" x="238.93" y="148.98" width="29.17" height="26.37"/>
  <rect class="cls-1" x="769.59" y="118.61" width="29.17" height="26.37"/>
  <rect class="cls-1" x="736.43" y="118.61" width="29.17" height="26.37"/>
  <rect class="cls-1" x="703.26" y="118.61" width="29.17" height="26.37"/>
  <rect class="cls-1" x="670.09" y="118.61" width="29.17" height="26.37"/>
  <rect class="cls-1" x="636.93" y="118.61" width="29.17" height="26.37"/>
  <rect class="cls-1" x="603.76" y="118.61" width="29.17" height="26.37"/>
  <rect class="cls-1" x="570.59" y="118.61" width="29.17" height="26.37"/>
  <rect class="cls-1" x="471.09" y="118.61" width="29.17" height="26.37"/>
  <rect class="cls-1" x="437.93" y="118.61" width="29.17" height="26.37"/>
  <rect class="cls-1" x="404.76" y="118.61" width="29.17" height="26.37"/>
  <rect class="cls-1" x="305.26" y="118.61" width="29.17" height="26.37"/>
  <rect class="cls-1" x="272.09" y="118.61" width="29.17" height="26.37"/>
  <rect class="cls-1" x="238.93" y="118.61" width="29.17" height="26.37"/>
  <rect class="cls-1" x="736.43" y="88.24" width="29.17" height="26.37"/>
  <rect class="cls-1" x="703.26" y="88.24" width="29.17" height="26.37"/>
  <rect class="cls-1" x="670.09" y="88.24" width="29.17" height="26.37"/>
  <rect class="cls-1" x="636.93" y="88.24" width="29.17" height="26.37"/>
  <rect class="cls-1" x="437.93" y="88.24" width="29.17" height="26.37"/>
  <rect class="cls-1" x="404.76" y="88.24" width="29.17" height="26.37"/>
  <rect class="cls-1" x="371.59" y="88.24" width="29.17" height="26.37"/>
  <rect class="cls-1" x="338.43" y="88.24" width="29.17" height="26.37"/>
  <rect class="cls-1" x="305.26" y="88.24" width="29.17" height="26.37"/>
  <rect class="cls-1" x="272.09" y="88.24" width="29.17" height="26.37"/>
  <rect class="cls-1" x="371.59" y="57.88" width="29.17" height="26.37"/>
  <rect class="cls-1" x="338.43" y="57.88" width="29.17" height="26.37"/>
  <rect class="cls-1" x="305.26" y="57.88" width="29.17" height="26.37"/>
</svg>